/* XPM */
static char * left_xpm[] = {
"16 16 5 1",
" 	c None",
".	c #CE5C00",
"+	c #000000",
"@	c #FCAF3E",
"#	c #F57900",
"                ",
"      ..        ",
"     ..+        ",
"    .@.+        ",
"   .@#.+........",
"  .@##@@@@@@@@.+",
" .@###########.+",
".@############.+",
".@############.+",
" .@###########.+",
"  .@##.........+",
"   .@#.+++++++++",
"    .@.+        ",
"     ..+        ",
"      .+        ",
"                "};
