/* XPM */
static char * up_xpm[] = {
"16 16 5 1",
" 	c None",
".	c #CE5C00",
"+	c #FCAF3E",
"@	c #000000",
"#	c #F57900",
"       ..       ",
"      .+.@      ",
"     .+##.@     ",
"    .+####.@    ",
"   .+######.@   ",
"  .+########.@  ",
" ....+####....@ ",
" @@@@+####.@@@@ ",
"    .+####.@    ",
"    .+####.@    ",
"    .+####.@    ",
"    .+####.@    ",
"    .+####.@    ",
"    .+####.@    ",
"    .......@    ",
"    @@@@@@@@    "};
