/* XPM */
static char * clipboard_xpm[] = {
"16 16 9 1",
" 	c None",
".	c #2E3436",
"+	c #8F5902",
"@	c #555753",
"#	c #C17D11",
"$	c #000000",
"%	c #BABDB6",
"&	c #D3D7CF",
"*	c #EEEEEC",
"       ..       ",
"  ++++.@@.++++  ",
"  +##.@@@@.#+$  ",
"  +#%......%+$  ",
"  +#%&$$$$&*+$  ",
"  +#%&&&&&&*+$  ",
"  +#%&&$$$$*+$  ",
"  +#%&&&&&&*+$  ",
"  +#%$$$$$$*+$  ",
"  +#%&&&&&&*+$  ",
"  +#%$$$$$&*+$  ",
"  +#%&&&&&&*+$  ",
"  +#%$$$$$$*+$  ",
"  +#********+$  ",
"  +++++++++++$  ",
"  $$$$$$$$$$$$  "};
