/* XPM */
static char * paint_xpm[] = {
"16 16 16 1",
" 	c None",
".	c #8F5902",
"+	c #E9B96E",
"@	c #FCAF3E",
"#	c #888A85",
"$	c #555753",
"%	c #000000",
"&	c #2E3436",
"*	c #AD7FA8",
"=	c #75507B",
"-	c #5C3566",
";	c #729FCF",
">	c #3465A4",
",	c #204A87",
"'	c #EF2929",
")	c #CC0000",
"    ........    ",
"  ..++++++++..  ",
" .++@@#$@@@@+.% ",
" .+@@@$&@@*=@.. ",
".+@@@@@@@@=-@@.%",
".+@@@@@@@@@@@@.%",
".+;>@@@..@@@@.. ",
".+>,@@.% +@@..% ",
".+@@@@.  +..%%  ",
".+@@@@@++..%    ",
".+@')@@@..      ",
".+@))@@@.%      ",
" .+@@@@@.%      ",
" ...@@@..%      ",
"  %.....%       ",
"    %%%         "};
