/* XPM */
static char * pepe_xpm[] = {
"16 16 8 1",
" 	c None",
".	c #4E9A06",
"+	c #73D216",
"@	c #000000",
"#	c #D3D7CF",
"$	c #204A87",
"%	c #3465A4",
"&	c #CC0000",
"                ",
"   ....    .... ",
"   .++.    .+.@ ",
" ...++......+.@ ",
" .+++++++++++.@ ",
" .+++##@@++##@@ ",
" .+++##@@++##@@ ",
" .+++++++++++.@ ",
" ...+++++++++.@ ",
" $%.+&&&&&&&&&@ ",
" $%.+&&&&&&&@@@ ",
" $%.+++++++.@   ",
" $%.........@   ",
" $$$$$$$$$$$@   ",
" @@@@@@@@@@@@   ",
"                "};
