/* XPM */
static char * trash_xpm[] = {
"16 16 8 1",
" 	c None",
".	c #4E9A06",
"+	c #888A85",
"@	c #2E3436",
"#	c #000000",
"$	c #555753",
"%	c #8AE234",
"&	c #73D216",
"  ............  ",
" .++++++++++++. ",
".+@@@@@@@@@@@@@#",
".+@$$$$$$$$$$$@#",
".@@$$$$$$$$$$$##",
".%@@@@@@@@@@@@.#",
".%%%%%%%%%%%%%.#",
" .%&&&&&&&&&&.# ",
" .%&&&.&..&&&.# ",
" .%&&.&&&&.&&.# ",
" .%&&.&&&&.&&.# ",
"  .%&.&&&&&&.#  ",
"  .%&&&...&&.#  ",
"  .%&&&&&&&&.#  ",
"  ...........#  ",
"   ##########   "};
